<?xml version="1.0" encoding="UTF-8" standalone="no"?>
<!DOCTYPE svg PUBLIC "-//W3C//DTD SVG 1.1//EN"
 "http://www.w3.org/Graphics/SVG/1.1/DTD/svg11.dtd">
<!-- Generated by graphviz version 2.26.3 (20100126.1600)
 -->
<!-- Title: Finite_Automata_Graph Pages: 1 -->
<svg width="239pt" height="332pt"
 viewBox="0.00 0.00 239.00 332.00" xmlns="http://www.w3.org/2000/svg" xmlns:xlink="http://www.w3.org/1999/xlink">
<g id="graph1" class="graph" transform="scale(1 1) rotate(0) translate(4 328)">
<title>Finite_Automata_Graph</title>
<polygon fill="white" stroke="white" points="-4,5 -4,-328 236,-328 236,5 -4,5"/>
<!-- 0 -->
<g id="node1" class="node"><title>0</title>
<ellipse fill="none" stroke="#000000" cx="101" cy="-306" rx="18" ry="18"/>
<text text-anchor="middle" x="101" y="-301.4" font-family="Times Roman,serif" font-size="14.00">0</text>
</g>
<!-- 1 -->
<g id="node2" class="node"><title>1</title>
<ellipse fill="none" stroke="#000000" cx="47" cy="-214" rx="18" ry="18"/>
<ellipse fill="none" stroke="#000000" cx="47" cy="-214" rx="22" ry="22"/>
<text text-anchor="middle" x="47" y="-209.4" font-family="Times Roman,serif" font-size="14.00">1</text>
</g>
<!-- 0&#45;&gt;1 -->
<g id="edge2" class="edge"><title>0&#45;&gt;1</title>
<path fill="none" stroke="black" d="M91.8396,-290.393C84.0922,-277.194 72.7978,-257.952 63.4828,-242.082"/>
<polygon fill="black" stroke="black" points="66.3493,-240.051 58.2688,-233.199 60.3124,-243.595 66.3493,-240.051"/>
<text text-anchor="middle" x="83.5" y="-257.4" font-family="Times Roman,serif" font-size="14.00">a</text>
</g>
<!-- 2 -->
<g id="node3" class="node"><title>2</title>
<ellipse fill="none" stroke="#000000" cx="141" cy="-214" rx="18" ry="18"/>
<ellipse fill="none" stroke="#000000" cx="141" cy="-214" rx="22" ry="22"/>
<text text-anchor="middle" x="141" y="-209.4" font-family="Times Roman,serif" font-size="14.00">2</text>
</g>
<!-- 0&#45;&gt;2 -->
<g id="edge4" class="edge"><title>0&#45;&gt;2</title>
<path fill="none" stroke="black" d="M108.337,-289.126C113.85,-276.445 121.545,-258.748 128.081,-243.715"/>
<polygon fill="black" stroke="black" points="131.396,-244.866 132.174,-234.3 124.977,-242.075 131.396,-244.866"/>
<text text-anchor="middle" x="128" y="-257.4" font-family="Times Roman,serif" font-size="14.00">b</text>
</g>
<!-- 3 -->
<g id="node4" class="node"><title>3</title>
<ellipse fill="none" stroke="#000000" cx="22" cy="-118" rx="18" ry="18"/>
<ellipse fill="none" stroke="#000000" cx="22" cy="-118" rx="22" ry="22"/>
<text text-anchor="middle" x="22" y="-113.4" font-family="Times Roman,serif" font-size="14.00">3</text>
</g>
<!-- 1&#45;&gt;3 -->
<g id="edge6" class="edge"><title>1&#45;&gt;3</title>
<path fill="none" stroke="black" d="M41.4517,-192.694C38.1411,-179.982 33.8766,-163.606 30.1846,-149.429"/>
<polygon fill="black" stroke="black" points="33.5265,-148.373 27.6192,-139.578 26.7524,-150.137 33.5265,-148.373"/>
<text text-anchor="middle" x="41" y="-161.4" font-family="Times Roman,serif" font-size="14.00">b</text>
</g>
<!-- 4 -->
<g id="node5" class="node"><title>4</title>
<ellipse fill="none" stroke="#000000" cx="157" cy="-22" rx="18" ry="18"/>
<ellipse fill="none" stroke="#000000" cx="157" cy="-22" rx="22" ry="22"/>
<text text-anchor="middle" x="157" y="-17.4" font-family="Times Roman,serif" font-size="14.00">4</text>
</g>
<!-- 2&#45;&gt;4 -->
<g id="edge8" class="edge"><title>2&#45;&gt;4</title>
<path fill="none" stroke="black" d="M131.388,-193.826C121.414,-170.227 108.387,-130.049 117,-96 121.22,-79.3201 130.027,-62.3202 138.306,-48.8274"/>
<polygon fill="black" stroke="black" points="141.452,-50.4041 143.89,-40.0936 135.554,-46.6333 141.452,-50.4041"/>
<text text-anchor="middle" x="121.5" y="-113.4" font-family="Times Roman,serif" font-size="14.00">a</text>
</g>
<!-- 5 -->
<g id="node6" class="node"><title>5</title>
<ellipse fill="none" stroke="#000000" cx="157" cy="-118" rx="18" ry="18"/>
<ellipse fill="none" stroke="#000000" cx="157" cy="-118" rx="22" ry="22"/>
<text text-anchor="middle" x="157" y="-113.4" font-family="Times Roman,serif" font-size="14.00">5</text>
</g>
<!-- 2&#45;&gt;5 -->
<g id="edge10" class="edge"><title>2&#45;&gt;5</title>
<path fill="none" stroke="black" d="M144.631,-192.216C146.703,-179.785 149.339,-163.969 151.644,-150.134"/>
<polygon fill="black" stroke="black" points="155.137,-150.469 153.328,-140.03 148.232,-149.319 155.137,-150.469"/>
<text text-anchor="middle" x="154" y="-161.4" font-family="Times Roman,serif" font-size="14.00">b</text>
</g>
<!-- 3&#45;&gt;3 -->
<g id="edge14" class="edge"><title>3&#45;&gt;3</title>
<path fill="none" stroke="black" d="M42.5808,-126.734C52.8447,-127.943 62,-125.031 62,-118 62,-113.496 58.2427,-110.682 52.8436,-109.559"/>
<polygon fill="black" stroke="black" points="52.6768,-106.053 42.5808,-109.266 52.4767,-113.05 52.6768,-106.053"/>
<text text-anchor="middle" x="67" y="-113.4" font-family="Times Roman,serif" font-size="14.00">b</text>
</g>
<!-- 6 -->
<g id="node7" class="node"><title>6</title>
<ellipse fill="none" stroke="#000000" cx="22" cy="-22" rx="18" ry="18"/>
<ellipse fill="none" stroke="#000000" cx="22" cy="-22" rx="22" ry="22"/>
<text text-anchor="middle" x="22" y="-17.4" font-family="Times Roman,serif" font-size="14.00">6</text>
</g>
<!-- 3&#45;&gt;6 -->
<g id="edge12" class="edge"><title>3&#45;&gt;6</title>
<path fill="none" stroke="black" d="M12.7606,-97.6402C10.3985,-91.4616 8.19099,-84.5679 7,-78 5.41237,-69.2447 6.71014,-59.8581 9.08977,-51.3202"/>
<polygon fill="black" stroke="black" points="12.4292,-52.3699 12.2722,-41.7762 5.7886,-50.1556 12.4292,-52.3699"/>
<text text-anchor="middle" x="11.5" y="-65.4" font-family="Times Roman,serif" font-size="14.00">a</text>
</g>
<!-- 4&#45;&gt;2 -->
<g id="edge16" class="edge"><title>4&#45;&gt;2</title>
<path fill="none" stroke="black" d="M173.656,-36.5067C187.991,-50.1886 207.644,-72.1161 216,-96 222.458,-114.459 223.544,-121.958 216,-140 206.236,-163.349 185.119,-183.075 167.772,-196.274"/>
<polygon fill="black" stroke="black" points="165.642,-193.496 159.626,-202.216 169.767,-199.151 165.642,-193.496"/>
<text text-anchor="middle" x="226" y="-113.4" font-family="Times Roman,serif" font-size="14.00">b</text>
</g>
<!-- 5&#45;&gt;4 -->
<g id="edge18" class="edge"><title>5&#45;&gt;4</title>
<path fill="none" stroke="black" d="M157,-95.7344C157,-83.4968 157,-68.0907 157,-54.5295"/>
<polygon fill="black" stroke="black" points="160.5,-54.1448 157,-44.1449 153.5,-54.1449 160.5,-54.1448"/>
<text text-anchor="middle" x="161.5" y="-65.4" font-family="Times Roman,serif" font-size="14.00">a</text>
</g>
<!-- 5&#45;&gt;5 -->
<g id="edge20" class="edge"><title>5&#45;&gt;5</title>
<path fill="none" stroke="black" d="M177.581,-126.734C187.845,-127.943 197,-125.031 197,-118 197,-113.496 193.243,-110.682 187.844,-109.559"/>
<polygon fill="black" stroke="black" points="187.677,-106.053 177.581,-109.266 187.477,-113.05 187.677,-106.053"/>
<text text-anchor="middle" x="202" y="-113.4" font-family="Times Roman,serif" font-size="14.00">b</text>
</g>
<!-- 6&#45;&gt;3 -->
<g id="edge22" class="edge"><title>6&#45;&gt;3</title>
<path fill="none" stroke="black" d="M22,-44.1449C22,-56.3616 22,-71.7632 22,-85.3366"/>
<polygon fill="black" stroke="black" points="18.5001,-85.7343 22,-95.7344 25.5001,-85.7344 18.5001,-85.7343"/>
<text text-anchor="middle" x="27" y="-65.4" font-family="Times Roman,serif" font-size="14.00">b</text>
</g>
</g>
</svg>
