<?xml version="1.0" encoding="UTF-8" standalone="no"?>
<!DOCTYPE svg PUBLIC "-//W3C//DTD SVG 1.1//EN"
 "http://www.w3.org/Graphics/SVG/1.1/DTD/svg11.dtd">
<!-- Generated by graphviz version 2.26.3 (20100126.1600)
 -->
<!-- Title: Finite_Automata_Graph Pages: 1 -->
<svg width="252pt" height="904pt"
 viewBox="0.00 0.00 252.00 904.00" xmlns="http://www.w3.org/2000/svg" xmlns:xlink="http://www.w3.org/1999/xlink">
<g id="graph1" class="graph" transform="scale(1 1) rotate(0) translate(4 900)">
<title>Finite_Automata_Graph</title>
<polygon fill="white" stroke="white" points="-4,5 -4,-900 249,-900 249,5 -4,5"/>
<!-- 0 -->
<g id="node1" class="node"><title>0</title>
<ellipse fill="none" stroke="#000000" cx="122" cy="-878" rx="18" ry="18"/>
<text text-anchor="middle" x="122" y="-873.4" font-family="Times Roman,serif" font-size="14.00">0</text>
</g>
<!-- 1 -->
<g id="node2" class="node"><title>1</title>
<ellipse fill="none" stroke="#000000" cx="93" cy="-790" rx="18" ry="18"/>
<text text-anchor="middle" x="93" y="-785.4" font-family="Times Roman,serif" font-size="14.00">1</text>
</g>
<!-- 0&#45;&gt;1 -->
<g id="edge2" class="edge"><title>0&#45;&gt;1</title>
<path fill="none" stroke="black" d="M116.271,-860.614C112.179,-848.2 106.596,-831.258 101.924,-817.08"/>
<polygon fill="black" stroke="black" points="105.172,-815.752 98.7176,-807.35 98.5234,-817.943 105.172,-815.752"/>
<text text-anchor="middle" x="114" y="-829.4" font-family="Times Roman,serif" font-size="14.00">ε</text>
</g>
<!-- 3 -->
<g id="node4" class="node"><title>3</title>
<ellipse fill="none" stroke="#000000" cx="147" cy="-790" rx="18" ry="18"/>
<text text-anchor="middle" x="147" y="-785.4" font-family="Times Roman,serif" font-size="14.00">3</text>
</g>
<!-- 0&#45;&gt;3 -->
<g id="edge4" class="edge"><title>0&#45;&gt;3</title>
<path fill="none" stroke="black" d="M126.939,-860.614C130.466,-848.2 135.279,-831.258 139.307,-817.08"/>
<polygon fill="black" stroke="black" points="142.705,-817.926 142.071,-807.35 135.971,-816.013 142.705,-817.926"/>
<text text-anchor="middle" x="140" y="-829.4" font-family="Times Roman,serif" font-size="14.00">ε</text>
</g>
<!-- 6 -->
<g id="node7" class="node"><title>6</title>
<ellipse fill="none" stroke="#000000" cx="90" cy="-697" rx="18" ry="18"/>
<text text-anchor="middle" x="90" y="-692.4" font-family="Times Roman,serif" font-size="14.00">6</text>
</g>
<!-- 1&#45;&gt;6 -->
<g id="edge6" class="edge"><title>1&#45;&gt;6</title>
<path fill="none" stroke="black" d="M92.4073,-771.626C91.9813,-758.421 91.399,-740.369 90.9138,-725.327"/>
<polygon fill="black" stroke="black" points="94.402,-724.901 90.5813,-715.019 87.4056,-725.127 94.402,-724.901"/>
<text text-anchor="middle" x="95.5" y="-741.4" font-family="Times Roman,serif" font-size="14.00">a</text>
</g>
<!-- 2 -->
<g id="node3" class="node"><title>2</title>
<ellipse fill="none" stroke="#000000" cx="74" cy="-305" rx="18" ry="18"/>
<text text-anchor="middle" x="74" y="-300.4" font-family="Times Roman,serif" font-size="14.00">2</text>
</g>
<!-- 5 -->
<g id="node6" class="node"><title>5</title>
<ellipse fill="none" stroke="#000000" cx="108" cy="-22" rx="18" ry="18"/>
<ellipse fill="none" stroke="#000000" cx="108" cy="-22" rx="22" ry="22"/>
<text text-anchor="middle" x="108" y="-17.4" font-family="Times Roman,serif" font-size="14.00">5</text>
</g>
<!-- 2&#45;&gt;5 -->
<g id="edge8" class="edge"><title>2&#45;&gt;5</title>
<path fill="none" stroke="black" d="M76.1786,-286.867C81.8197,-239.912 96.9622,-113.873 104.133,-54.1864"/>
<polygon fill="black" stroke="black" points="107.617,-54.5305 105.335,-44.1844 100.667,-53.6955 107.617,-54.5305"/>
<text text-anchor="middle" x="96" y="-153.4" font-family="Times Roman,serif" font-size="14.00">ε</text>
</g>
<!-- 10 -->
<g id="node11" class="node"><title>10</title>
<ellipse fill="none" stroke="#000000" cx="170" cy="-697" rx="22.8079" ry="22.8079"/>
<text text-anchor="middle" x="170" y="-692.4" font-family="Times Roman,serif" font-size="14.00">10</text>
</g>
<!-- 3&#45;&gt;10 -->
<g id="edge10" class="edge"><title>3&#45;&gt;10</title>
<path fill="none" stroke="black" d="M151.326,-772.507C154.321,-760.398 158.396,-743.919 161.976,-729.445"/>
<polygon fill="black" stroke="black" points="165.469,-729.899 164.472,-719.352 158.674,-728.219 165.469,-729.899"/>
<text text-anchor="middle" x="163" y="-741.4" font-family="Times Roman,serif" font-size="14.00">ε</text>
</g>
<!-- 4 -->
<g id="node5" class="node"><title>4</title>
<ellipse fill="none" stroke="#000000" cx="138" cy="-114" rx="18" ry="18"/>
<text text-anchor="middle" x="138" y="-109.4" font-family="Times Roman,serif" font-size="14.00">4</text>
</g>
<!-- 4&#45;&gt;5 -->
<g id="edge12" class="edge"><title>4&#45;&gt;5</title>
<path fill="none" stroke="black" d="M132.357,-96.6955C128.33,-84.3464 122.805,-67.4033 118.035,-52.7753"/>
<polygon fill="black" stroke="black" points="121.309,-51.5253 114.881,-43.1031 114.654,-53.6955 121.309,-51.5253"/>
<text text-anchor="middle" x="129" y="-65.4" font-family="Times Roman,serif" font-size="14.00">ε</text>
</g>
<!-- 6&#45;&gt;2 -->
<g id="edge16" class="edge"><title>6&#45;&gt;2</title>
<path fill="none" stroke="black" d="M73.9098,-688.894C48.0226,-674.577 0,-642.197 0,-599 0,-599 0,-599 0,-403 0,-368.745 29.1495,-338.885 50.8587,-321.397"/>
<polygon fill="black" stroke="black" points="53.2395,-323.981 59.025,-315.105 48.9673,-318.436 53.2395,-323.981"/>
<text text-anchor="middle" x="4" y="-496.4" font-family="Times Roman,serif" font-size="14.00">ε</text>
</g>
<!-- 7 -->
<g id="node8" class="node"><title>7</title>
<ellipse fill="none" stroke="#000000" cx="90" cy="-599" rx="18" ry="18"/>
<text text-anchor="middle" x="90" y="-594.4" font-family="Times Roman,serif" font-size="14.00">7</text>
</g>
<!-- 6&#45;&gt;7 -->
<g id="edge14" class="edge"><title>6&#45;&gt;7</title>
<path fill="none" stroke="black" d="M90,-678.567C90,-664.103 90,-643.724 90,-627.211"/>
<polygon fill="black" stroke="black" points="93.5001,-627.019 90,-617.019 86.5001,-627.019 93.5001,-627.019"/>
<text text-anchor="middle" x="94" y="-643.4" font-family="Times Roman,serif" font-size="14.00">ε</text>
</g>
<!-- 9 -->
<g id="node10" class="node"><title>9</title>
<ellipse fill="none" stroke="#000000" cx="44" cy="-501" rx="18" ry="18"/>
<text text-anchor="middle" x="44" y="-496.4" font-family="Times Roman,serif" font-size="14.00">9</text>
</g>
<!-- 7&#45;&gt;9 -->
<g id="edge18" class="edge"><title>7&#45;&gt;9</title>
<path fill="none" stroke="black" d="M82.1967,-582.376C75.0163,-567.078 64.2592,-544.161 55.9885,-526.541"/>
<polygon fill="black" stroke="black" points="59.1055,-524.944 51.688,-517.379 52.7688,-527.918 59.1055,-524.944"/>
<text text-anchor="middle" x="74" y="-545.4" font-family="Times Roman,serif" font-size="14.00">b</text>
</g>
<!-- 8 -->
<g id="node9" class="node"><title>8</title>
<ellipse fill="none" stroke="#000000" cx="74" cy="-403" rx="18" ry="18"/>
<text text-anchor="middle" x="74" y="-398.4" font-family="Times Roman,serif" font-size="14.00">8</text>
</g>
<!-- 8&#45;&gt;2 -->
<g id="edge22" class="edge"><title>8&#45;&gt;2</title>
<path fill="none" stroke="black" d="M74,-384.567C74,-370.103 74,-349.724 74,-333.211"/>
<polygon fill="black" stroke="black" points="77.5001,-333.019 74,-323.019 70.5001,-333.019 77.5001,-333.019"/>
<text text-anchor="middle" x="78" y="-349.4" font-family="Times Roman,serif" font-size="14.00">ε</text>
</g>
<!-- 8&#45;&gt;7 -->
<g id="edge20" class="edge"><title>8&#45;&gt;7</title>
<path fill="none" stroke="black" d="M75.473,-421.044C78.2682,-455.286 84.3603,-529.913 87.6987,-570.809"/>
<polygon fill="black" stroke="black" points="84.2213,-571.23 88.5234,-580.912 91.1981,-570.66 84.2213,-571.23"/>
<text text-anchor="middle" x="87" y="-496.4" font-family="Times Roman,serif" font-size="14.00">ε</text>
</g>
<!-- 9&#45;&gt;8 -->
<g id="edge24" class="edge"><title>9&#45;&gt;8</title>
<path fill="none" stroke="black" d="M41.6517,-483.09C40.7907,-471.63 40.8711,-456.603 45,-444 47.2613,-437.097 51.1222,-430.345 55.3021,-424.376"/>
<polygon fill="black" stroke="black" points="58.21,-426.336 61.5051,-416.266 52.6498,-422.083 58.21,-426.336"/>
<text text-anchor="middle" x="49" y="-447.4" font-family="Times Roman,serif" font-size="14.00">ε</text>
</g>
<!-- 9&#45;&gt;8 -->
<g id="edge26" class="edge"><title>9&#45;&gt;8</title>
<path fill="none" stroke="black" d="M49.3634,-483.48C53.8854,-468.708 60.4338,-447.316 65.6428,-430.3"/>
<polygon fill="black" stroke="black" points="69.1025,-430.955 68.683,-420.369 62.4091,-428.906 69.1025,-430.955"/>
<text text-anchor="middle" x="64.5" y="-447.4" font-family="Times Roman,serif" font-size="14.00">a</text>
</g>
<!-- 12 -->
<g id="node13" class="node"><title>12</title>
<ellipse fill="none" stroke="#000000" cx="170" cy="-599" rx="22.8079" ry="22.8079"/>
<text text-anchor="middle" x="170" y="-594.4" font-family="Times Roman,serif" font-size="14.00">12</text>
</g>
<!-- 10&#45;&gt;12 -->
<g id="edge28" class="edge"><title>10&#45;&gt;12</title>
<path fill="none" stroke="black" d="M170,-673.775C170,-661.327 170,-645.775 170,-632.083"/>
<polygon fill="black" stroke="black" points="173.5,-632.058 170,-622.058 166.5,-632.058 173.5,-632.058"/>
<text text-anchor="middle" x="175" y="-643.4" font-family="Times Roman,serif" font-size="14.00">b</text>
</g>
<!-- 11 -->
<g id="node12" class="node"><title>11</title>
<ellipse fill="none" stroke="#000000" cx="150" cy="-207" rx="22.8079" ry="22.8079"/>
<text text-anchor="middle" x="150" y="-202.4" font-family="Times Roman,serif" font-size="14.00">11</text>
</g>
<!-- 11&#45;&gt;4 -->
<g id="edge32" class="edge"><title>11&#45;&gt;4</title>
<path fill="none" stroke="black" d="M147.034,-184.011C145.402,-171.363 143.363,-155.566 141.636,-142.18"/>
<polygon fill="black" stroke="black" points="145.082,-141.537 140.331,-132.067 138.14,-142.433 145.082,-141.537"/>
<text text-anchor="middle" x="148" y="-153.4" font-family="Times Roman,serif" font-size="14.00">ε</text>
</g>
<!-- 11&#45;&gt;10 -->
<g id="edge30" class="edge"><title>11&#45;&gt;10</title>
<path fill="none" stroke="black" d="M170.381,-218.327C195.812,-234.137 236,-265.387 236,-305 236,-599 236,-599 236,-599 236,-629.153 214.238,-656.991 195.706,-675.23"/>
<polygon fill="black" stroke="black" points="192.926,-673.039 188.035,-682.437 197.719,-678.141 192.926,-673.039"/>
<text text-anchor="middle" x="240" y="-447.4" font-family="Times Roman,serif" font-size="14.00">ε</text>
</g>
<!-- 13 -->
<g id="node14" class="node"><title>13</title>
<ellipse fill="none" stroke="#000000" cx="147" cy="-501" rx="22.8079" ry="22.8079"/>
<text text-anchor="middle" x="147" y="-496.4" font-family="Times Roman,serif" font-size="14.00">13</text>
</g>
<!-- 12&#45;&gt;13 -->
<g id="edge34" class="edge"><title>12&#45;&gt;13</title>
<path fill="none" stroke="black" d="M164.666,-576.271C161.676,-563.531 157.896,-547.427 154.601,-533.387"/>
<polygon fill="black" stroke="black" points="157.998,-532.542 152.306,-523.606 151.183,-534.141 157.998,-532.542"/>
<text text-anchor="middle" x="163" y="-545.4" font-family="Times Roman,serif" font-size="14.00">ε</text>
</g>
<!-- 15 -->
<g id="node16" class="node"><title>15</title>
<ellipse fill="none" stroke="#000000" cx="153" cy="-305" rx="22.8079" ry="22.8079"/>
<text text-anchor="middle" x="153" y="-300.4" font-family="Times Roman,serif" font-size="14.00">15</text>
</g>
<!-- 12&#45;&gt;15 -->
<g id="edge36" class="edge"><title>12&#45;&gt;15</title>
<path fill="none" stroke="black" d="M174.032,-576.105C180.402,-536.038 190.913,-450.734 179,-380 176.483,-365.056 171.331,-349.111 166.272,-335.783"/>
<polygon fill="black" stroke="black" points="169.399,-334.173 162.466,-326.161 162.89,-336.747 169.399,-334.173"/>
<text text-anchor="middle" x="188" y="-447.4" font-family="Times Roman,serif" font-size="14.00">ε</text>
</g>
<!-- 14 -->
<g id="node15" class="node"><title>14</title>
<ellipse fill="none" stroke="#000000" cx="147" cy="-403" rx="22.8079" ry="22.8079"/>
<text text-anchor="middle" x="147" y="-398.4" font-family="Times Roman,serif" font-size="14.00">14</text>
</g>
<!-- 13&#45;&gt;14 -->
<g id="edge38" class="edge"><title>13&#45;&gt;14</title>
<path fill="none" stroke="black" d="M138.143,-479.485C134.787,-468.871 132.168,-455.836 134,-444 134.476,-440.926 135.141,-437.767 135.921,-434.632"/>
<polygon fill="black" stroke="black" points="139.339,-435.408 138.715,-424.832 132.607,-433.489 139.339,-435.408"/>
<text text-anchor="middle" x="139" y="-447.4" font-family="Times Roman,serif" font-size="14.00">b</text>
</g>
<!-- 14&#45;&gt;13 -->
<g id="edge40" class="edge"><title>14&#45;&gt;13</title>
<path fill="none" stroke="black" d="M147,-426.058C147,-438.479 147,-454.025 147,-467.733"/>
<polygon fill="black" stroke="black" points="143.5,-467.775 147,-477.775 150.5,-467.775 143.5,-467.775"/>
<text text-anchor="middle" x="151" y="-447.4" font-family="Times Roman,serif" font-size="14.00">ε</text>
</g>
<!-- 14&#45;&gt;15 -->
<g id="edge42" class="edge"><title>14&#45;&gt;15</title>
<path fill="none" stroke="black" d="M148.422,-379.775C149.184,-367.327 150.136,-351.775 150.974,-338.083"/>
<polygon fill="black" stroke="black" points="154.471,-338.253 151.588,-328.058 147.484,-337.825 154.471,-338.253"/>
<text text-anchor="middle" x="154" y="-349.4" font-family="Times Roman,serif" font-size="14.00">ε</text>
</g>
<!-- 15&#45;&gt;11 -->
<g id="edge44" class="edge"><title>15&#45;&gt;11</title>
<path fill="none" stroke="black" d="M147.165,-282.588C145.856,-276.592 144.66,-270.086 144,-264 143.149,-256.159 143.401,-247.708 144.153,-239.778"/>
<polygon fill="black" stroke="black" points="147.64,-240.099 145.381,-229.748 140.692,-239.249 147.64,-240.099"/>
<text text-anchor="middle" x="148" y="-251.4" font-family="Times Roman,serif" font-size="14.00">ε</text>
</g>
<!-- 15&#45;&gt;11 -->
<g id="edge46" class="edge"><title>15&#45;&gt;11</title>
<path fill="none" stroke="black" d="M152.289,-281.775C151.908,-269.327 151.432,-253.775 151.013,-240.083"/>
<polygon fill="black" stroke="black" points="154.51,-239.946 150.706,-230.058 147.514,-240.16 154.51,-239.946"/>
<text text-anchor="middle" x="155.5" y="-251.4" font-family="Times Roman,serif" font-size="14.00">a</text>
</g>
</g>
</svg>
